{
    "asset" : {
        "generator" : "Khronos glTF Blender I/O v3.4.50",
        "version" : "2.0"
    },
    "scene" : 0,
    "scenes" : [
        {
            "name" : "Scene",
            "nodes" : [
                0
            ]
        }
    ],
    "nodes" : [
        {
            "mesh" : 0,
            "name" : "Cube"
        }
    ],
    "materials" : [
        {
            "doubleSided" : true,
            "name" : "Material",
            "pbrMetallicRoughness" : {
                "baseColorTexture" : {
                    "index" : 0
                },
                "metallicFactor" : 0
            }
        }
    ],
    "meshes" : [
        {
            "name" : "Cube",
            "primitives" : [
                {
                    "attributes" : {
                        "POSITION" : 0,
                        "TEXCOORD_0" : 1,
                        "NORMAL" : 2
                    },
                    "indices" : 3,
                    "material" : 0
                }
            ]
        }
    ],
    "textures" : [
        {
            "sampler" : 0,
            "source" : 0
        }
    ],
    "images" : [
        {
            "bufferView" : 4,
            "mimeType" : "image/png",
            "name" : "ImphenziaPalette01"
        }
    ],
    "accessors" : [
        {
            "bufferView" : 0,
            "componentType" : 5126,
            "count" : 1448,
            "max" : [
                4,
                2.2118966579437256,
                0.43580469489097595
            ],
            "min" : [
                -4,
                0,
                -0.436411589384079
            ],
            "type" : "VEC3"
        },
        {
            "bufferView" : 1,
            "componentType" : 5126,
            "count" : 1448,
            "type" : "VEC2"
        },
        {
            "bufferView" : 2,
            "componentType" : 5126,
            "count" : 1448,
            "type" : "VEC3"
        },
        {
            "bufferView" : 3,
            "componentType" : 5123,
            "count" : 2028,
            "type" : "SCALAR"
        }
    ],
    "bufferViews" : [
        {
            "buffer" : 0,
            "byteLength" : 17376,
            "byteOffset" : 0,
            "target" : 34962
        },
        {
            "buffer" : 0,
            "byteLength" : 11584,
            "byteOffset" : 17376,
            "target" : 34962
        },
        {
            "buffer" : 0,
            "byteLength" : 17376,
            "byteOffset" : 28960,
            "target" : 34962
        },
        {
            "buffer" : 0,
            "byteLength" : 4056,
            "byteOffset" : 46336,
            "target" : 34963
        },
        {
            "buffer" : 0,
            "byteLength" : 1126,
            "byteOffset" : 50392
        }
    ],
    "samplers" : [
        {
            "magFilter" : 9729,
            "minFilter" : 9987
        }
    ],
    "buffers" : [
        {
            "byteLength" : 51520,
            "uri" : "data:application/octet-stream;base64,"
        }
    ]
}
